<svg version="1.2" xmlns="http://www.w3.org/2000/svg" viewBox="0 0 1000 1000" width="1000" height="1000">
	<title>specify-glass-black</title>
	<style>
		.s0 { fill: #000000 }

        @media (prefers-color-scheme: dark) {
            .s0 { fill: #ffffff }
        }
	</style>
	<path id="Path 0" fill-rule="evenodd" class="s0" d="m606.3 50.1c11.5-0.1 25.8 0.5 34.5 1.4 8.1 0.9 21.2 2.9 29.2 4.5 8 1.6 19.9 4.4 26.5 6.3 6.6 1.9 16.5 5.2 22 7.2 5.5 2.1 15.6 6.3 22.5 9.4 6.9 3 17.9 8.7 24.5 12.5 6.6 3.8 15.8 9.4 20.5 12.6 4.7 3.1 13.7 9.7 20 14.6 6.3 4.9 18.9 16.3 28 25.4 9.1 9.1 20.5 21.7 25.4 28 4.9 6.3 11.5 15.3 14.6 20 3.2 4.7 8.8 13.9 12.6 20.5 3.8 6.6 9.5 17.6 12.5 24.5 3.1 6.9 7.3 17 9.4 22.5 2 5.5 5.3 15.4 7.2 22 1.9 6.6 4.7 18.5 6.3 26.5 1.6 8 3.6 21.1 4.5 29.3 0.8 8.1 1.5 22.8 1.5 32.7 0 9.9-0.7 24.6-1.5 32.8-0.9 8.1-2.9 21.2-4.5 29.2-1.6 8-4.4 19.9-6.3 26.5-1.9 6.6-5.2 16.5-7.2 22-2.1 5.5-6.3 15.6-9.4 22.5-3 6.9-8.7 17.9-12.5 24.5-3.8 6.6-9.4 15.8-12.6 20.5-3.1 4.7-9.7 13.7-14.6 20-4.9 6.3-16.3 18.9-25.4 28-9.1 9.1-21.7 20.5-28 25.4-6.3 4.9-15.3 11.5-20 14.6-4.7 3.2-13.9 8.8-20.5 12.6-6.6 3.8-17.6 9.5-24.5 12.5-6.9 3.1-17 7.3-22.5 9.4-5.5 2-15.4 5.3-22 7.2-6.6 1.9-18.5 4.7-26.5 6.3-8 1.6-21.1 3.6-29.2 4.5-8.2 0.8-22.9 1.5-32.8 1.5-9.9 0-24.6-0.7-32.7-1.6-8.2-0.8-19.5-2.4-25.3-3.5-5.8-1.1-16.3-3.5-23.5-5.4-7.1-1.9-17.5-4.9-23-6.9-5.5-1.9-14.9-5.6-21-8.1-6-2.6-14.8-6.7-19.5-9-4.7-2.4-13.4-7.3-19.5-10.9-6-3.7-11.1-6.6-11.2-6.6-0.2 0-1.2 2.1-2.3 4.8-1.7 3.9-24.1 26.8-271.5 274l-8.5 4.1c-4.7 2.2-11.6 4.8-15.5 5.6-5.1 1.2-10.2 1.6-18.5 1.3-9.3-0.3-13.1-1-19.5-3.2-4.4-1.5-10.7-4.4-14-6.4-3.3-2-9.1-6.8-13-10.7q-7-7-11.2-15c-2.3-4.4-5.1-11.6-6.3-16-1.4-5.4-2-11.1-2-17.5 0-5.2 0.7-12.4 1.6-16 0.8-3.6 3.3-10.3 9.6-23.5l134.2-134.3c78.7-78.9 135.6-135.1 137.9-136.3 2-1 4.4-1.9 5.2-1.9 0.8 0 1.5-0.3 1.5-0.7 0-0.5-2.9-5.8-6.6-11.8-3.6-6-8.5-14.8-10.9-19.5-2.3-4.7-6.4-13.4-9-19.5-2.5-6-6.2-15.5-8.1-21-2-5.5-5-15.8-6.9-23-1.9-7.1-4.3-17.7-5.4-23.5-1.1-5.8-2.7-17.1-3.5-25.2-0.9-8.2-1.6-22.9-1.6-32.8 0-9.9 0.7-24.6 1.5-32.7 0.9-8.2 2.9-21.3 4.5-29.3 1.6-8 4.4-19.9 6.3-26.5 1.9-6.6 5.2-16.5 7.2-22 2.1-5.5 6.3-15.6 9.4-22.5 3-6.9 8.7-17.9 12.5-24.5 3.8-6.6 9.4-15.8 12.6-20.5 3.1-4.7 9.7-13.7 14.6-20 4.9-6.3 16.3-18.9 25.4-28 9.1-9.1 21.7-20.5 28-25.4 6.3-4.9 15.3-11.5 20-14.6 4.7-3.2 13.9-8.8 20.5-12.6 6.6-3.8 17.6-9.5 24.5-12.5 6.9-3.1 17-7.3 22.5-9.4 5.5-2 15.4-5.3 22-7.2 6.6-1.9 18.5-4.7 26.5-6.3 8-1.6 20.4-3.6 27.5-4.4 7.2-0.7 21.9-1.4 32.8-1.5zm-37.8 83.4c-5.5 0.9-14.9 3-21 4.5-6 1.5-15.5 4.5-21 6.5-5.5 2-15.4 6.2-22 9.4-6.6 3.2-16.3 8.4-21.5 11.7-5.2 3.2-14 9.2-19.5 13.3-5.5 4.1-15.6 12.9-22.4 19.5-6.8 6.7-15.2 15.7-18.8 20.1-3.6 4.4-10.1 13.4-14.5 20-4.4 6.6-11.1 18.3-14.8 26-3.8 7.7-8.5 18.5-10.5 24-2 5.5-5 14.9-6.5 21-1.5 6.1-3.5 15.3-4.4 20.5-0.9 5.2-2.1 16.3-2.8 24.5-0.8 11.1-0.8 19 0 30.5 0.7 8.5 1.9 19.8 2.8 25 0.9 5.2 2.9 14.4 4.4 20.5 1.5 6.1 4.5 15.5 6.5 21 2 5.5 6.7 16.3 10.5 24 3.7 7.7 10.4 19.4 14.8 26 4.4 6.6 10.9 15.6 14.5 20 3.6 4.4 12 13.4 18.8 20.1 6.8 6.6 16.9 15.4 22.4 19.5 5.5 4.1 14.3 10.1 19.5 13.3 5.2 3.3 14.9 8.5 21.5 11.7 6.6 3.2 16.5 7.4 22 9.4 5.5 2 15 5 21 6.5 6.1 1.5 15.3 3.5 20.5 4.4 5.2 0.9 16.5 2.1 25 2.8 11.5 0.8 19.4 0.8 30.5 0 8.3-0.7 19.3-1.9 24.5-2.8 5.2-0.9 14.5-2.9 20.5-4.4 6.1-1.5 15.5-4.5 21-6.5 5.5-2 15.4-6.2 22-9.4 6.6-3.2 16.3-8.4 21.5-11.7 5.2-3.2 14-9.2 19.5-13.3 5.5-4.1 15.6-12.9 22.4-19.5 6.8-6.7 15.2-15.7 18.8-20.1 3.6-4.4 10.1-13.4 14.5-20 4.4-6.6 11.1-18.3 14.8-26 3.8-7.7 8.5-18.5 10.5-24 2-5.5 5-14.9 6.5-21 1.5-6.1 3.5-15.3 4.4-20.5 0.9-5.2 2.1-16.5 2.8-25 0.8-11.5 0.8-19.4 0-30.5-0.7-8.2-1.9-19.3-2.8-24.5-0.9-5.2-2.9-14.4-4.4-20.5-1.5-6.1-4.5-15.5-6.5-21-2-5.5-6.7-16.3-10.5-24-3.7-7.7-10.4-19.4-14.8-26-4.4-6.6-10.9-15.6-14.5-20-3.6-4.4-12-13.4-18.8-20.1-6.8-6.6-16.9-15.4-22.4-19.5-5.5-4.1-14.3-10.1-19.5-13.3-5.2-3.3-14.9-8.5-21.5-11.7-6.6-3.2-16.5-7.4-22-9.4-5.5-2-14.9-5-21-6.5-6-1.5-15.3-3.5-20.5-4.4-5.2-0.9-14.9-2-21.5-2.6-6.6-0.5-15.8-0.9-20.5-0.8-4.7 0-12.8 0.4-18 0.9-5.2 0.4-14 1.5-19.5 2.4z"/>
</svg>
